<svg width="100" height="100" viewBox="0 0 100 100" fill="none" xmlns="http://www.w3.org/2000/svg">
<g >
<rect x="20" y="20" width="60" height="60" rx="12.0094" fill="#3E5C76"/>
</g>
<path d="M50.016 51.0663C47.6985 50.4002 46.0097 49.5839 44.9495 48.6175C43.8987 47.6418 43.3733 46.4408 43.3733 45.0147C43.3733 43.401 44.016 42.0687 45.3014 41.0179C46.5961 39.9576 48.2756 39.4275 50.3397 39.4275C51.747 39.4275 52.9996 39.6996 54.0973 40.2438C55.2044 40.788 56.0582 41.5386 56.6587 42.4956C57.2685 43.4526 57.5734 44.4987 57.5734 45.634H54.8573C54.8573 44.3955 54.4632 43.4244 53.6751 42.7207C52.887 42.0077 51.7752 41.6512 50.3397 41.6512C49.0074 41.6512 47.9659 41.9467 47.2154 42.5378C46.4742 43.1195 46.1036 43.9311 46.1036 44.9725C46.1036 45.8075 46.4554 46.5159 47.1591 47.0976C47.8721 47.6699 49.0777 48.1953 50.7759 48.6738C52.4835 49.1523 53.8158 49.6824 54.7728 50.2641C55.7392 50.8365 56.4523 51.5073 56.912 52.2766C57.3811 53.046 57.6157 53.9514 57.6157 54.9928C57.6157 56.6535 56.9683 57.9858 55.6735 58.9897C54.3788 59.9842 52.6477 60.4815 50.4804 60.4815C49.0731 60.4815 47.7595 60.2141 46.5398 59.6793C45.3201 59.1351 44.3772 58.3939 43.7111 57.4557C43.0543 56.5174 42.7259 55.4526 42.7259 54.261H45.4421C45.4421 55.4995 45.8971 56.4799 46.8072 57.2024C47.7267 57.9154 48.9511 58.2719 50.4804 58.2719C51.9065 58.2719 52.9996 57.9811 53.7595 57.3994C54.5195 56.8177 54.8995 56.0249 54.8995 55.021C54.8995 54.0171 54.5476 53.243 53.844 52.6988C53.1403 52.1453 51.8643 51.6011 50.016 51.0663Z" fill="white"/>
<path fill-rule="evenodd" clip-rule="evenodd" d="M36.7565 45.6668C37.2531 45.6668 37.6559 45.2639 37.6559 44.7674V36.4558H45.9675C46.4641 36.4558 46.8669 36.053 46.8669 35.5564C46.8669 35.0599 46.4641 34.657 45.9675 34.657H36.7565C36.2599 34.657 35.8571 35.0599 35.8571 35.5564V44.7674C35.8571 45.2639 36.2599 45.6668 36.7565 45.6668ZM45.9675 62.8508H37.6559V54.5378C37.6559 54.0413 37.2531 53.6384 36.7565 53.6384C36.2599 53.6384 35.8571 54.0413 35.8571 54.5378V63.7502C35.8571 64.2468 36.2599 64.6497 36.7565 64.6497H45.9675C46.4641 64.6497 46.8669 64.2468 46.8669 63.7502C46.8669 63.2537 46.4641 62.8508 45.9675 62.8508ZM64.0496 54.5378C64.0496 54.0413 64.4523 53.6384 64.949 53.6384C65.4455 53.6384 65.8484 54.0413 65.8484 54.5378V63.7502C65.8484 64.2468 65.4455 64.6497 64.949 64.6497H55.7379C55.2414 64.6497 54.8385 64.2468 54.8385 63.7502C54.8385 63.2537 55.2414 62.8508 55.7379 62.8508H64.0496V54.5378ZM55.7379 34.657H64.949C65.4455 34.657 65.8484 35.0599 65.8484 35.5564V44.7674C65.8484 45.2639 65.4455 45.6668 64.949 45.6668C64.4523 45.6668 64.0496 45.2639 64.0496 44.7674V36.4558H55.7379C55.2414 36.4558 54.8385 36.053 54.8385 35.5564C54.8385 35.0599 55.2414 34.657 55.7379 34.657Z" fill="white"/>
<defs>
<filter x="0.785" y="0.785" width="98.43" height="98.43" filterUnits="userSpaceOnUse" color-interpolation-filters="sRGB">
<feFlood flood-opacity="0" result="BackgroundImageFix"/>
<feColorMatrix in="SourceAlpha" type="matrix" values="0 0 0 0 0 0 0 0 0 0 0 0 0 0 0 0 0 0 127 0"/>
<feOffset/>
<feGaussianBlur stdDeviation="9.6075"/>
<feColorMatrix type="matrix" values="0 0 0 0 0 0 0 0 0 0 0 0 0 0 0 0 0 0 0.1 0"/>
<feBlend mode="normal" in2="BackgroundImageFix" result="effect1_dropShadow"/>
<feBlend mode="normal" in="SourceGraphic" in2="effect1_dropShadow" result="shape"/>
</filter>
</defs>
</svg>
